PathFileType	4	(X/Y/Z)	/Users/niels/Desktop/University/Third Semester/Perception and Action/Exam/Gymnastics Motion Tracking/Code for Gym Tracking/Analyzed Data/Webcam_Backflip/id5_8_trajectory_Sports2D/id5_8_trajectory_Sports2D_px_person00.trc
DataRate	CameraRate	NumFrames	NumMarkers	Units	OrigDataRate	OrigDataStartFrame	OrigNumFrames
29.77777777777778	29.77777777777778	11	22	m	29.77777777777778	16	135
Frame#	Time	Hip			RHip			RKnee			RAnkle			RBigToe			RSmallToe			RHeel			LHip			LKnee			LAnkle			LBigToe			LSmallToe			LHeel			Neck			Head			Nose			RShoulder			RElbow			RWrist			LShoulder			LElbow			LWrist		
		X1	Y1	Z1	X2	Y2	Z2	X3	Y3	Z3	X4	Y4	Z4	X5	Y5	Z5	X6	Y6	Z6	X7	Y7	Z7	X8	Y8	Z8	X9	Y9	Z9	X10	Y10	Z10	X11	Y11	Z11	X12	Y12	Z12	X13	Y13	Z13	X14	Y14	Z14	X15	Y15	Z15	X16	Y16	Z16	X17	Y17	Z17	X18	Y18	Z18	X19	Y19	Z19	X20	Y20	Z20	X21	Y21	Z21	X22	Y22	Z22
16	0.5373134328358209	1.3166640625712347	-1.0549375000969998	0.0	1.0961367187499993	-0.9895751953125	0.0	0.8876249993796945	-0.8451679688993461	0.0			0.0	0.531649658203125	-0.6760112304687499	0.0	0.8820671386707825	-0.680852783203592	0.0			0.0	1.6133437501416845	-1.001958984394459	0.0	2.0230193880947827	-0.8628647693947069	0.0			0.0	0.8820671386718751	-0.5317695312500003	0.0	0.7104458087381951	-0.7230251960814708	0.0	1.375857421875	-0.5512734375000002	0.0	0.6431099910042289	-0.9881472194505048	0.0	0.6638147692682319	-0.567263956685986	0.0	0.6804629015547905	-0.8593072974024009	0.0	0.33238999003126507	-1.0260140154225488	0.0	0.3136448628627592	-1.0678511987682104	0.0	0.7448260668652764	-1.0032275424902481	0.0	0.8893313776937052	-1.0208205649046127	0.0	0.9084388852442995	-1.0652370982067425	0.0	0.7895554502622826	-1.0651714233653333	0.0
17	0.5708955223880597	1.3166640626159332	-1.054937500156423	0.0	1.0961367187499993	-0.9895751953125	0.0	0.887624997731144	-0.8451679692962558	0.0			0.0	0.531649658203125	-0.6760112304687499	0.0	0.8820671386640632	-0.6808527832064615	0.0			0.0	1.6133437501474381	-1.0019589843952492	0.0	2.022870659424129	-0.8630447394994489	0.0			0.0	0.8820671386718751	-0.5317695312500003	0.0	0.7082426989439624	-0.7295401687398314	0.0	1.375857421875	-0.5512734375000002	0.0	0.6064180395585286	-0.9970779623060027	0.0	0.6319254021225806	-0.5846484253341945	0.0	0.6491009377037937	-0.8760857891180339	0.0	0.29241173297151435	-1.0274372512874377	0.0	0.28442353524020103	-1.066747831644604	0.0	0.7448868259313661	-1.0032268406781608	0.0	0.8404785145964426	-1.0273965602843935	0.0	0.8504016302994936	-1.067746671998791	0.0	0.7881396905632714	-1.0652209690639116	0.0
18	0.6044776119402985	1.3166640626484358	-1.0549375001981305	0.0	1.0961367187499993	-0.9895751953125	0.0	0.8876249952205789	-0.8451679699007068	0.0			0.0	0.531649658203125	-0.6760112304687499	0.0	0.882067138652892	-0.6808527832112321	0.0			0.0	1.6133437500650052	-1.001958984383928	0.0	2.022760313309132	-0.8630820887018216	0.0			0.0	0.8820671386718751	-0.5317695312500003	0.0	0.7059148802683527	-0.7373819160735956	0.0	1.375857421875	-0.5512734375000002	0.0	0.5903818731320145	-1.0010701703431653	0.0	0.6163801458434328	-0.5939861889957525	0.0	0.6327682774894661	-0.8839024429922565	0.0	0.2746403324537544	-1.0296083824111708	0.0	0.2666395672196411	-1.0656177305077619	0.0	0.7449420743535687	-1.003196656923355	0.0	0.8200839584473775	-1.0294688275264035	0.0	0.8260919002506255	-1.0687977827226913	0.0	0.7877352247676132	-1.0653245308656407	0.0
19	0.6380597014925373	1.3166640626301496	-1.0549375001696608	0.0	1.0961367187499993	-0.9895751953125	0.0	0.8876249922627986	-0.8451679706128308	0.0			0.0	0.531649658203125	-0.6760112304687499	0.0	0.8820671386382382	-0.68085278321749	0.0			0.0	1.613343749822824	-1.0019589843506675	0.0	2.0226875972525447	-0.8630469328987458	0.0			0.0	0.8820671386718751	-0.5317695312500003	0.0	0.7035452196567153	-0.7471524687956321	0.0	1.375857421875	-0.5512734375000002	0.0	0.5862649487510516	-1.0021411863104337	0.0	0.6103969993663735	-0.5977785039090249	0.0	0.6253342484220523	-0.8863789951179663	0.0	0.2698957581843179	-1.0317868469560765	0.0	0.25767349468923667	-1.0644758105676635	0.0	0.7449494146880261	-1.0031165008011604	0.0	0.8163753074460488	-1.028695066361717	0.0	0.8218197358607412	-1.0688725725510348	0.0	0.7900591909789004	-1.0654914181742527	0.0
20	0.6716417910447761	1.316664062500781	-1.0549374999897976	0.0	1.0961367187499993	-0.9895751953125	0.0	0.8876249901549575	-0.8451679711203213	0.0			0.0	0.531649658203125	-0.6760112304687499	0.0	0.8820671386247259	-0.6808527832232603	0.0			0.0	1.613343749351955	-1.0019589842859995	0.0	2.022707418985446	-0.862985975593456	0.0			0.0	0.8820671386718753	-0.5317695312500003	0.0	0.701292918523525	-0.7592095067376582	0.0	1.375857421875	-0.5512734375000002	0.0	0.5868485783957971	-1.0018858359864682	0.0	0.6083898413354532	-0.598279158788663	0.0	0.6217356066728422	-0.8865877171956864	0.0	0.27065356362378906	-1.0334721773362725	0.0	0.2537695146992945	-1.0634141320873765	0.0	0.7448367990869567	-1.0029686736017427	0.0	0.819500227492036	-1.0266507029505854	0.0	0.8260371871783532	-1.06838153730027	0.0	0.7974834057905237	-1.0657027389542817	0.0
21	0.7052238805970149	1.3166640621868786	-1.0549374995607528	0.0	1.0961367187499993	-0.9895751953125	0.0	0.8876249914838265	-0.8451679708003801	0.0			0.0	0.531649658203125	-0.6760112304687499	0.0	0.8820671386228112	-0.6808527832240778	0.0			0.0	1.6133437486348718	-1.0019589841875172	0.0	2.0229383290973546	-0.8629245897075924	0.0			0.0	0.8820671386718754	-0.5317695312500003	0.0	0.699341554571354	-0.773267719436727	0.0	1.375857421875	-0.5512734375000002	0.0	0.5874440148471851	-1.0012777914509707	0.0	0.6067498850618555	-0.5973437237506863	0.0	0.618655976017749	-0.886530718781234	0.0	0.27194559445697986	-1.0344794681139815	0.0	0.2516349845001266	-1.0625326813308114	0.0	0.7445075880569587	-1.0027539657098705	0.0	0.8229502035244964	-1.024671077205047	0.0	0.8309417643066735	-1.0676590953848513	0.0	0.812415348075969	-1.0658836327237506	0.0
22	0.7388059701492538	1.3166640616311254	-1.0549374988085107	0.0	1.0961367187499993	-0.9895751953125	0.0	0.8876250002694325	-0.8451679686851337	0.0			0.0	0.531649658203125	-0.6760112304687499	0.0	0.8820671386502429	-0.6808527832123633	0.0			0.0	1.6133437477900523	-1.0019589840714918	0.0	2.023548571152225	-0.8628753308300694	0.0			0.0	0.8820671386718755	-0.5317695312500003	0.0	0.6977988639507798	-0.7882673210376915	0.0	1.375857421875	-0.5512734375000002	0.0	0.5858007391717632	-1.0008611678816413	0.0	0.6037482116596872	-0.5962546494279249	0.0	0.6144210820820524	-0.8871300791790929	0.0	0.27132352667059223	-1.0348579732472043	0.0	0.24884002597151308	-1.0619017959612291	0.0	0.7438689336928724	-1.0025176583328903	0.0	0.8234468787517011	-1.0237239516832564	0.0	0.8325072561955252	-1.066959524959354	0.0	0.8357764967401632	-1.0658726024883662	0.0
23	0.7723880597014925	1.316664060852755	-1.0549374977650234	0.0	1.0961367187499993	-0.9895751953125	0.0	0.8876250213762003	-0.8451679636034086	0.0			0.0	0.531649658203125	-0.6760112304687499	0.0	0.8820671387308351	-0.680852783177947	0.0			0.0	1.6133437471879974	-1.001958983988807	0.0	2.024700521340506	-0.8628476563115297	0.0			0.0	0.8820671386718756	-0.5317695312500003	0.0	0.6966733772014347	-0.8026246041966043	0.0	1.375857421875	-0.5512734375000002	0.0	0.5817736908446692	-1.0008997109409157	0.0	0.5992897395875868	-0.5955545647173534	0.0	0.6088707130973154	-0.8884369025118185	0.0	0.26854817629062355	-1.0348219318983654	0.0	0.2438786383118732	-1.061592202066091	0.0	0.7428980282409738	-1.0023833972943557	0.0	0.8205427474531183	-1.0241634992178823	0.0	0.8298800070419441	-1.0664472645516399	0.0	0.8642876127189038	-1.0654038527006817	0.0
24	0.8059701492537313	1.3166640600438695	-1.0549374966980616	0.0	1.0961367187499993	-0.9895751953125	0.0	0.8876250585345303	-0.8451679546570621	0.0			0.0	0.531649658203125	-0.6760112304687499	0.0	0.8820671388875292	-0.6808527831110319	0.0			0.0	1.6133437475675567	-1.0019589840409346	0.0	2.026428744953863	-0.8628557787978317	0.0			0.0	0.8820671386718756	-0.5317695312500003	0.0	0.6959236745141053	-0.8147224927911325	0.0	1.375857421875	-0.5512734375000002	0.0	0.5771695439645734	-1.0013294452497967	0.0	0.5948143892749069	-0.5950790025199612	0.0	0.6033800276015172	-0.8897754767694116	0.0	0.2652853249995691	-1.0346741870915568	0.0	0.2363162899479353	-1.0616879928619767	0.0	0.741756751100594	-1.0025839658471456	0.0	0.8165556636228938	-1.0255627366965803	0.0	0.825235379569402	-1.0661655340506433	0.0	0.8888376308074968	-1.064158112015584	0.0
25	0.8395522388059702	1.3166640596897778	-1.054937496271636	0.0	1.0961367187499993	-0.9895751953125	0.0	0.8876251102893662	-0.8451679421964158	0.0			0.0	0.531649658203125	-0.6760112304687499	0.0	0.8820671391261575	-0.6808527830091274	0.0			0.0	1.6133437500769552	-1.0019589843855692	0.0	2.0284337855717762	-0.8629222937234136	0.0			0.0	0.8820671386718754	-0.5317695312500001	0.0	0.6954887922307614	-0.8234803514407243	0.0	1.375857421875	-0.5512734375000002	0.0	0.5757626265939672	-1.0015547139572696	0.0	0.5933187387409476	-0.5938637423601372	0.0	0.6008724388718943	-0.889673027264946	0.0	0.2651512294745345	-1.0347410272075561	0.0	0.2269543169167463	-1.0622221892527144	0.0	0.7409486269220387	-1.003464436198033	0.0	0.8165918733472334	-1.0267837741699282	0.0	0.8244920873981726	-1.0659505941610719	0.0	0.8987474571825029	-1.0619266924019368	0.0
26	0.8731343283582089	1.3166640606688569	-1.0549374976756172	0.0	1.0961367187499993	-0.9895751953125	0.0	0.8876251635751055	-0.8451679293671795	0.0			0.0	0.531649658203125	-0.6760112304687499	0.0	0.8820671394072936	-0.6808527828890704	0.0			0.0	1.6133437561056	-1.0019589852135284	0.0	2.0298037749825677	-0.8630747542826358	0.0			0.0	0.8820671386718748	-0.5317695312499998	0.0	0.6952901440842425	-0.8287401798941401	0.0	1.375857421875	-0.5512734375000002	0.0	0.5831395692060581	-1.000249065065592	0.0	0.5992461638157826	-0.5899913286997926	0.0	0.6056874686830632	-0.8858658660184668	0.0	0.27386113998852646	-1.0352706796513964	0.0	0.21812651272499142	-1.0630260915300138	0.0	0.7414757041753651	-1.005416367203482	0.0	0.8280808656752475	-1.0262782522738347	0.0	0.8375139280097893	-1.0653444171125324	0.0	0.8900283670030319	-1.0587596217117865	0.0
